<?xml version="1.0" encoding="UTF-8"?>
<svg width="30px" height="26px" viewBox="0 0 30 26" version="1.1" xmlns="http://www.w3.org/2000/svg" xmlns:xlink="http://www.w3.org/1999/xlink">
    <!-- Generator: Sketch 52.4 (67378) - http://www.bohemiancoding.com/sketch -->
    <title>np_home_1526161_E0CDAC</title>
    <desc>Created with Sketch.</desc>
    <g id="Page-1" stroke="none" stroke-width="1" fill="none" fill-rule="evenodd">
        <g id="HOME-FEED" transform="translate(-34.000000, -1876.000000)" fill="#584421" fill-rule="nonzero">
            <g id="NAV_bar" transform="translate(0.000000, 1860.000000)">
                <g id="Group-7">
                    <g id="np_home_1526161_E0CDAC" transform="translate(34.000000, 16.000000)">
                        <path d="M21.930115,7.3817299 L21.930115,0.997396284 C21.930115,0.446767042 21.477822,0 20.9173675,0 C20.3582633,0 19.9046199,0.446767042 19.9046199,0.997396284 L19.9046199,5.55317005 L16.3269205,2.29474288 C15.6794372,1.70255546 14.6785726,1.70255546 14.0310893,2.29474288 L0.324564068,14.5298031 C-0.0802648829,14.8986402 -0.110613551,15.5194197 0.257310879,15.9258919 C0.441928005,16.1414758 0.714903977,16.2635438 0.999722344,16.2583573 C1.25027271,16.2492667 1.48894692,16.1544619 1.67488737,15.9921257 L3.36279994,14.4960313 L3.36279994,23.0078111 C3.38126132,24.6519524 4.73159576,25.9818141 6.40104257,26 L23.68628,26 C25.3557268,25.9818185 26.7060569,24.6519524 26.7245227,23.0078111 L26.7245227,14.4624522 L28.4124352,15.9923252 C28.8291471,16.2754394 29.3948679,16.2118055 29.7364001,15.842975 C30.0779323,15.4728413 30.0884986,14.9118059 29.7627734,14.5300026 L21.930115,7.3817299 Z M17.6087213,24.0050013 L12.4778046,24.0050013 L12.4778046,18.0532052 C12.4672552,17.9622959 12.4989035,17.8713865 12.5648368,17.8064527 C12.63077,17.7415189 12.7230786,17.7103502 12.8153872,17.7207398 L17.2724891,17.7207398 C17.3647976,17.7103502 17.4571062,17.7415189 17.5230394,17.8064527 C17.5889727,17.8713865 17.6206211,17.9622959 17.6100716,18.0532052 L17.6087213,24.0050013 Z M24.6979541,23.007605 L24.6992727,23.007605 C24.6808113,23.5504546 24.2377298,23.9868154 23.6865251,24.0050013 L19.6355349,24.0050013 L19.6355349,18.0532052 C19.6355349,17.4363156 19.3863045,16.8441282 18.9432207,16.4077673 C18.5001369,15.9714064 17.8988079,15.7259472 17.2724573,15.7259472 L12.8153554,15.7259472 C11.5111729,15.7259472 10.4522778,16.7687915 10.4522778,18.0532052 L10.4522778,24.0050013 L6.40128765,24.0050013 C5.85008292,23.9868198 5.40700587,23.5504546 5.38854011,23.007605 L5.38854011,12.6672653 L15.178433,3.95700352 L24.6979223,12.6011047 L24.6979541,23.007605 Z" id="Shape"></path>
                    </g>
                </g>
            </g>
        </g>
    </g>
</svg>