<?xml version="1.0" encoding="UTF-8"?>
<svg width="22px" height="27px" viewBox="0 0 22 27" version="1.1" xmlns="http://www.w3.org/2000/svg" xmlns:xlink="http://www.w3.org/1999/xlink">
    <!-- Generator: Sketch 52.4 (67378) - http://www.bohemiancoding.com/sketch -->
    <title>Shape</title>
    <desc>Created with Sketch.</desc>
    <g id="Page-1" stroke="none" stroke-width="1" fill="none" fill-rule="evenodd">
        <g id="HOME-FEED" transform="translate(-304.000000, -1875.000000)" fill="#584421" fill-rule="nonzero">
            <g id="NAV_bar" transform="translate(0.000000, 1860.000000)">
                <g id="Group-7">
                    <g id="np_profile_1594249_E0CDAC" transform="translate(304.000000, 15.000000)">
                        <path d="M22,25.2 C22,26.18904 21.1836257,27 20.1714537,27 L1.82854635,27 C0.821201987,27 0,26.19138 0,25.2 C0,19.23516 4.92464528,14.4 10.9998778,14.4 C17.0751103,14.4 21.9997556,19.23516 21.9997556,25.2 L22,25.2 Z M11.0001222,16.8 C6.48131132,16.8 2.77893579,20.24064 2.46605038,24.6 L19.5341941,24.6 C19.2214798,20.24064 15.5190553,16.8 11.0001222,16.8 Z M11.0001222,13.2 C7.28815235,13.2 4.27797469,10.24452 4.27797469,6.6 C4.27797469,2.95548 7.28815235,0 11.0001222,0 C14.7120921,0 17.7222698,2.95548 17.7222698,6.6 C17.7222698,10.24452 14.7120921,13.2 11.0001222,13.2 Z M11.0001222,10.8 C13.3633849,10.8 15.2778525,8.92032 15.2778525,6.6 C15.2778525,4.27968 13.3633849,2.4 11.0001222,2.4 C8.63685959,2.4 6.72239197,4.27968 6.72239197,6.6 C6.72239197,8.92032 8.63685959,10.8 11.0001222,10.8 Z" id="Shape"></path>
                    </g>
                </g>
            </g>
        </g>
    </g>
</svg>