<?xml version="1.0" encoding="UTF-8"?>
<svg width="24px" height="24px" viewBox="0 0 24 24" version="1.1" xmlns="http://www.w3.org/2000/svg" xmlns:xlink="http://www.w3.org/1999/xlink">
    <!-- Generator: Sketch 52.4 (67378) - http://www.bohemiancoding.com/sketch -->
    <title>np_search_1166289_000000</title>
    <desc>Created with Sketch.</desc>
    <g id="Page-1" stroke="none" stroke-width="1" fill="none" fill-rule="evenodd">
        <g id="HOME-FEED" transform="translate(-100.000000, -1879.000000)" fill="#584421" fill-rule="nonzero">
            <g id="NAV_bar" transform="translate(0.000000, 1860.000000)">
                <g id="np_search_1166289_000000" transform="translate(100.000000, 19.000000)">
                    <path d="M9.66613973,0 C4.33976342,0 0,4.33976342 0,9.66613973 C0,14.992516 4.33976342,19.3322795 9.66613973,19.3322795 C11.9694142,19.3322795 14.0852322,18.5185238 15.7491415,17.1657309 L22.2904515,23.707041 C22.6810636,24.097653 23.3164289,24.097653 23.707041,23.707041 C24.097653,23.3164289 24.097653,22.691463 23.707041,22.300851 L17.1657309,15.7595409 C18.5211237,14.0955649 19.3322795,11.9720807 19.3322795,9.66620639 C19.3322795,4.33983009 14.992516,6.66630326e-05 9.66613973,6.66630326e-05 L9.66613973,0 Z M9.66613973,1.99989098 C13.9119083,1.99989098 17.3323885,5.42037118 17.3323885,9.66613973 C17.3323885,13.9119083 13.9119083,17.3323885 9.66613973,17.3323885 C5.42037118,17.3323885 1.99989098,13.9119083 1.99989098,9.66613973 C1.99989098,5.42037118 5.42037118,1.99989098 9.66613973,1.99989098 Z" id="Shape"></path>
                </g>
            </g>
        </g>
    </g>
</svg>